<?xml version="1.0" standalone="no"?>
<!DOCTYPE svg PUBLIC "-//W3C//DTD SVG 20010904//EN"
 "http://www.w3.org/TR/2001/REC-SVG-20010904/DTD/svg10.dtd">
<svg version="1.0" xmlns="http://www.w3.org/2000/svg"
 width="1355.000000pt" height="849.000000pt" viewBox="0 0 1355.000000 849.000000"
 preserveAspectRatio="xMidYMid meet">
<metadata>
Created by potrace 1.16, written by Peter Selinger 2001-2019
</metadata>
<g transform="translate(0.000000,849.000000) scale(0.100000,-0.100000)"
fill="#000000" stroke="none">
<path d="M6910 8265 c0 -128 1 -135 20 -135 18 0 20 7 20 54 0 36 5 60 16 70
37 38 64 7 64 -73 0 -44 3 -51 20 -51 18 0 20 7 20 63 0 92 -36 132 -94 101
l-26 -13 0 60 c0 52 -2 59 -20 59 -19 0 -20 -7 -20 -135z"/>
<path d="M6020 8296 c-44 -14 -37 -32 11 -28 23 2 40 -3 48 -12 11 -13 7 -16
-26 -22 -74 -13 -104 -52 -67 -88 18 -19 75 -21 92 -4 9 9 12 9 12 0 0 -7 9
-12 20 -12 18 0 20 7 20 54 0 30 -4 66 -9 79 -13 33 -57 48 -101 33z"/>
<path d="M6246 8295 c-14 -8 -26 -10 -26 -4 0 5 -9 9 -20 9 -18 0 -20 -7 -20
-85 0 -78 2 -85 20 -85 18 0 20 7 20 58 0 60 11 82 41 82 22 0 29 -20 29 -86
0 -47 2 -54 20 -54 17 0 20 7 20 53 0 60 17 91 46 85 16 -3 19 -13 22 -71 3
-59 5 -67 22 -67 18 0 20 7 20 66 0 36 -5 74 -10 85 -12 22 -59 26 -90 7 -15
-9 -23 -10 -28 -2 -13 19 -39 23 -66 9z"/>
<path d="M6555 8302 c-66 -13 -91 -110 -39 -151 30 -24 91 -28 118 -8 16 12
17 14 1 27 -12 10 -19 10 -27 2 -23 -23 -78 -8 -78 20 0 4 30 8 66 8 l66 0 -7
28 c-14 60 -47 84 -100 74z"/>
<path d="M7384 8302 c-64 -10 -89 -106 -39 -149 52 -45 129 -23 149 44 6 18
-16 93 -26 93 -2 0 -17 4 -33 8 -17 4 -40 6 -51 4z"/>
<path d="M5772 8277 c-65 -69 16 -181 99 -137 24 13 26 -6 3 -38 -16 -24 -44
-28 -75 -11 -15 8 -24 7 -36 -2 -13 -12 -13 -14 3 -26 21 -15 97 -17 124 -3
27 15 40 64 40 156 0 77 -2 84 -20 84 -11 0 -20 -5 -20 -12 0 -9 -3 -9 -12 0
-21 21 -82 14 -106 -11z"/>
<path d="M7135 8275 c-55 -55 -16 -145 63 -145 46 0 85 24 63 39 -9 6 -20 5
-31 -1 -21 -14 -66 -3 -74 17 -4 12 6 15 59 15 62 0 65 1 65 24 0 13 -9 35
-21 50 -28 36 -89 37 -124 1z"/>
<path d="M7650 8297 c0 -3 16 -42 35 -88 33 -76 34 -83 20 -105 -9 -13 -22
-24 -30 -24 -8 0 -15 -7 -15 -15 0 -19 53 -21 68 -2 12 14 92 212 92 227 0 6
-8 10 -18 10 -14 0 -24 -15 -37 -55 -11 -30 -22 -55 -26 -55 -3 0 -15 24 -25
53 -15 39 -25 53 -42 55 -12 2 -22 1 -22 -1z"/>
<path d="M9617 8279 c-114 -8 -240 -30 -313 -55 -52 -17 -144 -73 -144 -86 0
-16 133 -278 180 -353 88 -144 200 -258 308 -312 l45 -23 -51 0 c-51 0 -52 -1
-52 -30 0 -29 1 -29 62 -32 l62 -3 -60 -36 c-72 -44 -163 -90 -226 -114 l-47
-17 -38 30 c-21 16 -67 47 -103 68 -36 20 -97 59 -136 86 -39 26 -75 48 -79
48 -4 0 -64 29 -134 64 -443 225 -899 354 -1396 396 -132 11 -485 14 -485 4 0
-4 21 -25 46 -47 87 -77 118 -203 78 -320 -20 -59 -82 -130 -139 -157 -25 -12
-45 -23 -45 -24 0 -1 11 -67 24 -147 53 -309 82 -673 92 -1129 11 -467 -24
-794 -106 -1013 -18 -47 -42 -79 -120 -160 -108 -112 -178 -160 -267 -184 -48
-13 -85 -14 -218 -7 -88 5 -227 9 -310 9 -133 0 -154 -2 -185 -21 -57 -33 -80
-77 -80 -150 0 -107 35 -161 123 -190 94 -31 298 -5 502 64 64 21 99 27 171
27 83 0 94 -2 139 -30 66 -41 81 -72 95 -190 11 -98 34 -212 84 -430 55 -233
61 -313 61 -795 0 -453 -7 -597 -46 -945 -17 -158 -49 -380 -64 -455 -5 -22 0
-27 42 -42 163 -58 206 -274 78 -387 -25 -21 -30 -31 -20 -35 8 -3 111 -11
229 -18 860 -49 1728 193 2453 684 331 224 664 537 903 848 34 43 34 44 8 27
-44 -28 -145 -50 -197 -42 -142 20 -249 123 -267 258 l-6 44 -107 23 c-143 30
-452 119 -608 176 -107 38 -340 131 -351 140 -2 1 19 46 46 100 114 227 196
477 238 722 27 162 39 306 24 297 -6 -4 -10 9 -10 30 0 22 -4 34 -10 30 -5 -3
-10 0 -10 7 0 9 -3 9 -10 -2 -9 -13 -10 -13 -10 0 0 9 -3 11 -8 5 -4 -5 -18
-12 -32 -14 -34 -5 -42 -7 -62 -16 -10 -4 -25 -4 -33 -1 -9 3 -18 -1 -21 -9
-4 -8 -10 -12 -15 -9 -5 3 -9 0 -9 -6 0 -6 -4 -9 -9 -5 -5 3 -12 1 -16 -5 -4
-6 -10 -8 -15 -5 -12 7 -41 -5 -35 -15 3 -5 -4 -6 -15 -3 -13 3 -20 0 -21 -8
0 -8 -4 -5 -9 6 -7 17 -9 17 -9 3 -1 -12 -6 -15 -18 -11 -12 5 -14 3 -8 -7 5
-8 4 -11 -3 -7 -15 10 -43 -3 -35 -16 4 -6 0 -8 -9 -4 -10 3 -33 -10 -63 -38
-26 -25 -52 -43 -59 -42 -6 1 -10 -6 -10 -15 1 -10 -1 -16 -5 -13 -10 6 -41
-32 -33 -40 4 -3 -2 -3 -13 1 -15 6 -17 4 -11 -11 4 -11 4 -16 0 -12 -4 3 -16
-3 -26 -16 -11 -12 -28 -32 -39 -44 -10 -13 -16 -23 -11 -23 4 0 -1 -5 -10
-11 -10 -5 -18 -17 -18 -24 0 -8 -5 -15 -11 -15 -5 0 -7 -4 -4 -10 3 -5 2 -10
-2 -10 -9 0 -42 -51 -40 -60 1 -3 -9 -23 -23 -44 -13 -22 -19 -36 -12 -32 8 5
10 2 6 -8 -3 -9 -9 -14 -13 -12 -4 3 -7 -3 -8 -12 -2 -29 -12 -65 -21 -71 -4
-3 -7 -17 -7 -31 1 -14 -4 -35 -12 -47 -9 -16 -10 -23 -2 -23 8 0 7 -6 -2 -17
-12 -14 -12 -16 0 -8 11 6 12 5 5 -6 -8 -14 -10 -19 -13 -39 0 -5 -24 4 -51
20 -28 17 -53 30 -56 30 -12 0 -203 133 -364 254 -318 238 -563 384 -740 442
-64 20 -95 49 -109 102 -15 53 -13 91 8 138 22 47 24 48 217 104 78 22 193 58
255 81 63 22 234 76 381 120 394 116 599 194 868 329 321 161 636 371 914 611
l109 94 1 85 c1 96 18 141 73 196 74 74 193 103 289 70 26 -9 49 -16 51 -16 7
0 -77 118 -159 224 -169 217 -376 429 -590 602 l-77 62 92 46 c51 25 119 62
151 81 32 19 60 35 62 35 3 0 -7 -23 -22 -52 -25 -49 -25 -52 -8 -65 10 -7 23
-13 29 -13 17 0 115 204 105 220 -12 20 -4 28 41 40 73 20 176 101 251 198 22
28 45 52 50 52 5 0 25 7 46 16 l37 16 -28 11 -27 12 36 60 c43 71 154 290 153
302 -1 17 -72 67 -127 89 -83 33 -194 53 -355 64 -155 11 -153 11 -310 -1z
m383 -24 c3 -2 2 -35 -3 -73 l-9 -69 -147 5 c-80 2 -186 -1 -235 -7 -49 -6
-91 -9 -93 -7 -2 2 -12 33 -22 70 -14 51 -16 69 -7 72 48 18 488 26 516 9z
m195 -31 c72 -17 155 -53 155 -68 0 -6 -10 -29 -23 -51 -32 -56 -68 -65 -155
-38 -37 12 -79 24 -93 27 l-25 5 12 73 c6 40 12 74 13 76 1 3 19 -1 116 -24z
m-771 -65 c10 -39 16 -71 14 -73 -24 -18 -105 -37 -134 -31 -31 5 -39 13 -59
57 -28 61 -27 63 71 97 88 30 87 30 108 -50z m526 -65 c31 -7 32 -8 26 -48 -4
-22 -9 -42 -11 -45 -10 -9 -199 -13 -308 -6 l-116 7 -12 35 c-6 19 -8 37 -4
41 17 17 354 30 425 16z m-545 -86 c58 -11 66 -16 75 -42 5 -16 10 -30 10 -32
0 -1 -21 -14 -47 -29 -60 -33 -83 -25 -117 43 -19 37 -22 52 -13 61 14 14 13
14 92 -1z m854 -2 c16 -19 -18 -88 -54 -112 -23 -15 -28 -14 -86 15 -34 17
-68 31 -76 31 -17 0 -17 39 0 44 21 7 161 33 183 35 12 0 27 -5 33 -13z m-316
-62 c11 -4 12 -14 2 -57 l-11 -52 -150 -3 c-82 -1 -159 0 -171 3 -26 6 -60 93
-40 100 55 21 324 27 370 9z m231 -102 c9 -15 -32 -71 -71 -96 -35 -22 -120
-52 -128 -44 -2 2 4 29 13 60 l17 57 60 14 c72 18 102 20 109 9z m-331 -36
l78 6 -7 -38 c-16 -88 -9 -84 -144 -84 -66 0 -120 1 -120 3 0 1 -9 27 -20 57
-11 30 -20 57 -20 60 0 3 35 2 78 -2 42 -5 112 -5 155 -2z m37 -151 c0 -3 -11
-28 -25 -56 l-26 -50 -51 3 c-50 3 -51 4 -80 56 l-30 52 106 0 c58 0 106 -2
106 -5z m-1390 -1133 c0 -37 1 -38 34 -34 47 6 78 -26 74 -75 -4 -52 -39 -75
-101 -67 l-47 7 0 103 c0 97 1 104 20 104 16 0 20 -7 20 -38z m340 3 c0 -32 3
-35 29 -35 39 0 54 -21 59 -86 4 -53 4 -54 -22 -54 -25 0 -26 3 -26 51 0 43
-3 50 -17 47 -14 -2 -19 -15 -21 -51 -3 -42 -5 -47 -28 -47 -24 0 -24 0 -24
105 l0 105 25 0 c22 0 25 -4 25 -35z m-1390 -15 c0 -13 7 -20 20 -20 13 0 20
-7 20 -20 0 -13 -7 -20 -20 -20 -13 0 -20 -7 -20 -19 0 -30 11 -51 27 -51 23
0 11 -35 -13 -38 -32 -5 -54 24 -54 68 0 37 -22 61 -35 40 -4 -7 -13 -7 -24 0
-10 5 -21 6 -25 3 -4 -4 8 -14 26 -23 39 -18 47 -49 18 -75 -17 -15 -27 -17
-58 -9 -51 13 -51 40 1 36 46 -4 47 3 2 22 -37 16 -48 49 -23 74 15 15 74 16
83 2 8 -13 35 13 35 34 0 9 8 16 20 16 13 0 20 -7 20 -20z m251 -30 c15 -9 19
-22 19 -69 l0 -58 -45 -6 c-55 -8 -74 -1 -81 29 -8 32 10 52 53 60 23 4 31 9
22 15 -7 4 -22 3 -32 -3 -26 -14 -45 5 -27 27 14 17 62 20 91 5z m259 -10 c11
-11 20 -31 20 -45 0 -23 -3 -25 -51 -25 -32 0 -48 -4 -44 -10 4 -6 23 -9 42
-8 45 4 55 -18 17 -32 -56 -22 -104 9 -104 66 0 43 30 74 70 74 17 0 39 -9 50
-20z m190 -60 c0 -97 -20 -130 -79 -130 -20 0 -46 6 -56 14 -16 12 -17 16 -6
30 10 12 17 13 27 5 17 -14 56 -8 62 10 3 9 -1 11 -16 6 -22 -6 -61 9 -74 29
-14 20 -8 79 8 97 13 14 31 18 75 18 l59 -1 0 -78z m600 60 c11 -11 20 -31 20
-45 0 -23 -3 -25 -51 -25 -32 0 -48 -4 -44 -10 4 -6 23 -9 42 -8 45 4 55 -18
17 -32 -56 -22 -104 9 -104 66 0 43 30 74 70 74 17 0 39 -9 50 -20z m312 3
c13 -12 18 -30 18 -68 l0 -52 -46 -7 c-58 -8 -84 6 -84 44 0 24 6 31 43 44 36
14 37 15 10 12 -39 -6 -64 17 -36 33 27 16 74 13 95 -6z m388 -5 c29 -32 27
-81 -6 -107 -15 -12 -37 -21 -49 -21 -38 0 -75 37 -75 76 0 68 84 102 130 52z
m-1802 -310 c17 -15 15 -48 -5 -70 -12 -14 -14 -21 -5 -30 8 -8 13 -7 18 5 6
17 54 25 54 9 0 -4 -7 -18 -16 -30 -15 -22 -15 -25 7 -49 l24 -25 -40 3 c-22
1 -57 -1 -78 -5 -50 -11 -87 12 -87 54 0 15 6 35 14 42 7 8 13 32 12 53 -1 32
3 41 24 52 25 13 54 9 78 -9z m412 -68 c30 -30 27 -83 -6 -109 -15 -12 -37
-21 -49 -21 -38 0 -75 37 -75 76 0 45 29 74 75 74 22 0 43 -8 55 -20z m156 9
c4 -8 9 -8 17 0 15 15 60 14 75 -1 7 -7 12 -38 12 -70 0 -51 -2 -58 -20 -58
-17 0 -20 7 -20 45 0 32 -5 47 -15 52 -22 8 -27 0 -32 -52 -5 -35 -10 -45 -24
-45 -16 0 -19 8 -19 51 0 43 -3 50 -17 47 -14 -2 -19 -15 -21 -51 -3 -42 -5
-47 -28 -47 -23 0 -24 2 -24 70 l0 70 54 0 c30 0 58 -5 62 -11z m266 -6 c25
-23 24 -87 -2 -113 -22 -22 -60 -26 -78 -8 -9 9 -12 3 -12 -30 0 -35 -3 -42
-20 -42 -19 0 -20 7 -20 104 l0 104 57 1 c39 0 63 -5 75 -16z m160 0 c10 -9
18 -29 18 -45 0 -27 -2 -28 -46 -28 -30 0 -43 -4 -38 -11 4 -6 20 -8 39 -5 41
8 53 -7 23 -28 -49 -35 -118 -1 -118 58 0 64 76 101 122 59z m505 -5 c31 -29
30 -72 -2 -103 -30 -30 -64 -32 -99 -4 -33 26 -36 79 -6 109 27 27 77 26 107
-2z m-787 -3056 c0 -37 1 -38 30 -34 55 8 90 -45 66 -102 -14 -34 -55 -54 -79
-39 -6 4 -24 6 -39 5 l-28 -2 0 105 0 105 25 0 c22 0 25 -4 25 -38z m-316 -54
c9 -13 16 -43 16 -71 0 -44 -2 -48 -22 -46 -13 2 -33 -1 -45 -5 -34 -11 -63
10 -63 44 0 25 5 31 40 41 26 8 36 15 28 20 -6 4 -20 4 -29 -1 -25 -14 -47 14
-22 29 32 19 80 13 97 -11z m636 2 c11 -11 20 -31 20 -45 0 -23 -3 -25 -51
-25 -32 0 -48 -4 -44 -10 4 -6 23 -9 42 -8 45 4 55 -18 17 -32 -56 -22 -104 9
-104 66 0 43 30 74 70 74 17 0 39 -9 50 -20z m160 -329 c0 -40 0 -40 34 -34
26 4 39 0 55 -16 21 -21 28 -74 13 -97 -14 -21 -53 -35 -75 -28 -12 4 -32 7
-44 5 -23 -2 -23 0 -23 103 0 99 1 106 20 106 17 0 20 -7 20 -39z m-1405 -42
c4 -5 13 -5 25 1 53 28 90 -6 90 -82 0 -45 -2 -48 -25 -48 -23 0 -25 3 -25 51
0 43 -3 50 -17 47 -14 -2 -19 -15 -21 -51 -3 -38 -7 -47 -22 -47 -15 0 -19 9
-22 48 -3 39 -6 47 -23 47 -17 0 -20 -8 -23 -47 -3 -40 -6 -48 -23 -48 -17 0
-19 7 -19 69 l0 69 50 0 c27 1 52 -3 55 -9z m275 -16 c27 -35 25 -69 -6 -100
-20 -20 -32 -24 -55 -19 -28 5 -29 4 -29 -29 0 -28 -4 -35 -20 -35 -19 0 -20
7 -20 104 l0 104 55 1 c47 0 57 -3 75 -26z m230 7 c11 -11 20 -31 20 -45 0
-23 -4 -25 -45 -25 -27 0 -45 -5 -45 -11 0 -8 13 -9 39 -5 66 10 60 -27 -5
-40 -41 -8 -84 27 -84 69 0 65 76 101 120 57z m157 9 c7 -7 13 -6 18 1 9 14
58 13 73 -2 7 -7 12 -38 12 -70 0 -51 -2 -58 -20 -58 -17 0 -20 7 -20 50 0 43
-3 50 -20 50 -17 0 -20 -7 -20 -50 0 -47 -2 -50 -25 -50 -23 0 -25 3 -25 51 0
43 -3 50 -17 47 -14 -2 -19 -15 -21 -51 -3 -39 -6 -47 -23 -47 -17 0 -19 7
-19 69 l0 69 47 0 c27 0 53 -4 60 -9z m239 3 c15 -10 34 -47 34 -66 0 -12 -11
-16 -51 -16 -32 0 -48 -4 -44 -10 4 -6 23 -9 42 -8 45 4 53 -15 14 -32 -53
-22 -101 9 -101 66 0 21 8 42 20 54 20 20 65 26 86 12z m416 -9 c13 -12 18
-30 18 -68 l0 -52 -46 -7 c-55 -7 -84 6 -84 38 0 29 15 41 59 51 23 5 30 10
20 15 -7 5 -22 4 -32 -2 -26 -14 -45 5 -27 27 17 20 69 19 92 -2z m411 0 c8
-10 19 -30 22 -45 7 -28 7 -28 -45 -28 -33 0 -49 -4 -45 -10 4 -6 23 -9 42 -8
20 2 38 -2 40 -8 6 -17 -50 -36 -82 -28 -54 13 -67 105 -18 133 28 16 68 13
86 -6z m-1263 -383 c49 -49 3 -139 -65 -126 -61 12 -83 71 -44 120 26 33 79
36 109 6z m575 -5 c39 -38 28 -93 -23 -114 -54 -23 -102 8 -102 65 0 69 76 99
125 49z"/>
<path d="M3451 7967 l-111 -194 111 -192 111 -191 223 0 223 0 111 192 112
192 -110 190 -110 191 -225 3 -224 2 -111 -193z"/>
<path d="M4736 8002 c-3 -5 8 -16 25 -26 16 -9 29 -24 29 -32 0 -19 -6 -18
-38 6 -26 19 -30 20 -57 6 -16 -8 -33 -12 -38 -9 -5 3 -12 1 -16 -5 -3 -6 -23
-13 -44 -17 -31 -6 -37 -4 -37 9 0 10 -5 14 -11 11 -7 -5 -3 -15 9 -29 20 -21
20 -21 1 -45 -26 -32 -24 -57 7 -86 52 -48 173 -29 242 37 17 18 32 39 32 49
0 13 13 18 61 23 76 9 104 19 113 42 8 20 -17 44 -43 43 -11 0 -8 -4 7 -11 44
-22 7 -44 -79 -47 -38 -1 -94 32 -84 50 4 5 36 10 73 11 46 1 55 3 27 5 -22 3
-46 9 -53 16 -9 7 -16 7 -20 0 -10 -14 -52 -27 -52 -15 0 6 -10 8 -22 4 -14
-3 -19 -2 -14 6 4 7 3 12 -3 12 -5 0 -12 -4 -15 -8z m-6 -77 c9 -11 22 -14 42
-10 17 4 28 2 28 -4 0 -6 7 -8 15 -5 21 9 19 -9 -6 -40 -29 -37 -92 -67 -153
-73 -41 -4 -56 -2 -76 15 l-25 20 21 29 c17 24 113 83 135 83 3 0 12 -7 19
-15z"/>
<path d="M6632 7864 c-228 -114 -162 -455 93 -481 223 -23 363 247 216 418
-75 88 -206 115 -309 63z"/>
<path d="M2420 7797 c-24 -12 -25 -17 -25 -97 0 -83 -1 -86 -33 -118 -33 -31
-34 -34 -25 -85 4 -28 8 -100 7 -159 l0 -108 35 -2 c60 -3 95 2 104 15 5 7 7
-31 4 -89 l-5 -102 42 -5 c22 -3 59 -2 81 1 l40 7 5 67 c3 42 11 73 21 83 15
15 13 67 -5 150 -6 26 -3 33 26 51 l33 21 0 -93 c0 -93 0 -94 -32 -123 -37
-34 -39 -50 -23 -177 7 -49 8 -103 2 -142 -8 -61 -8 -63 15 -68 27 -7 149 -1
158 8 9 9 10 70 1 93 l-8 20 13 -20 c27 -44 44 -39 146 43 60 48 113 69 147
56 19 -7 21 9 3 24 -34 28 -66 24 -142 -17 -110 -59 -110 -59 -126 46 -5 37
-11 76 -12 86 -2 9 -16 30 -31 46 -29 30 -30 61 -2 61 27 0 32 124 6 155 -10
12 -26 16 -56 13 -30 -2 -40 0 -37 10 8 19 -19 14 -72 -13 -37 -18 -51 -21
-57 -12 -12 19 -9 29 11 34 21 5 31 45 27 102 -5 56 -57 78 -104 45 -16 -11
-22 -26 -23 -57 -1 -23 -4 -32 -6 -19 -2 12 -10 22 -16 22 -9 0 -8 3 1 8 9 6
6 14 -13 32 -31 29 -32 48 -3 52 21 3 23 9 24 65 1 35 -4 69 -10 77 -16 22
-57 28 -86 13z"/>
<path d="M4864 7753 c-6 -2 -9 -15 -6 -28 3 -19 -1 -27 -19 -33 -22 -9 -22 -9
9 -23 31 -14 38 -34 12 -34 -7 0 -15 -6 -17 -12 -3 -7 0 -13 6 -13 6 0 11 -10
11 -22 0 -16 3 -19 8 -10 6 9 14 6 32 -13 l24 -26 -22 -6 c-12 -3 -22 -9 -22
-14 0 -5 -4 -9 -10 -9 -5 0 -10 11 -10 24 0 29 -30 42 -60 26 -15 -8 -20 -21
-20 -49 0 -21 -3 -40 -6 -44 -11 -11 -52 -136 -46 -141 3 -4 13 -6 22 -6 21 0
64 101 57 135 -10 55 43 73 63 21 6 -17 18 -26 37 -28 18 -2 29 -10 31 -22 2
-10 0 -16 -5 -13 -5 3 -18 -4 -28 -15 -16 -20 -16 -22 -1 -33 20 -15 21 -25 1
-25 -8 0 -22 -15 -31 -32 -10 -18 -24 -38 -33 -44 -10 -8 -16 -31 -17 -74 -1
-53 1 -63 17 -67 18 -5 26 -19 34 -64 2 -12 7 -24 10 -27 3 -3 -5 -12 -17 -19
-21 -12 -18 -13 32 -11 54 2 57 0 52 -31 -1 -5 -12 -11 -24 -13 -12 -2 -24 -9
-26 -17 -4 -11 6 -13 53 -8 31 3 60 9 64 12 3 4 -6 17 -21 30 -27 23 -39 43
-18 30 6 -3 10 -3 10 1 0 9 -28 118 -40 160 -15 47 -12 60 15 72 30 14 44 47
50 119 4 54 -1 63 -23 41 -10 -10 -11 -5 -8 24 3 21 16 47 31 62 22 22 25 32
19 61 -12 68 19 35 52 -53 10 -29 10 -34 -7 -43 -22 -11 -25 -35 -5 -42 27
-11 60 17 68 57 8 38 7 40 -51 97 -33 33 -67 59 -78 60 -10 0 -13 3 -5 6 19 7
15 66 -5 79 -10 6 -39 10 -66 10 -33 -1 -46 2 -43 11 6 14 -15 32 -30 26z"/>
<path d="M10555 7537 c-22 -5 -46 -16 -53 -24 -7 -7 -17 -13 -20 -13 -16 0
-114 -90 -178 -163 -52 -61 -72 -77 -88 -73 -10 3 -42 0 -70 -6 -44 -9 -48
-12 -32 -24 10 -7 35 -16 57 -19 l39 -7 -41 -71 c-46 -82 -129 -253 -128 -264
0 -5 20 -25 45 -45 86 -72 278 -109 564 -109 281 0 443 27 564 95 37 20 66 39
66 41 0 3 -18 43 -40 91 -94 204 -234 414 -333 498 -82 70 -168 106 -247 105
-36 -1 -83 -6 -105 -12z m193 -141 c17 -26 32 -52 32 -57 0 -5 -49 -9 -110 -9
-69 0 -110 4 -110 10 0 15 28 81 42 97 7 9 28 13 62 11 49 -3 52 -5 84 -52z
m21 -83 c16 -4 31 -22 47 -60 13 -29 24 -57 24 -62 0 -5 -74 -8 -165 -7 -143
0 -164 3 -161 16 3 8 10 35 16 60 7 25 17 48 24 52 14 9 182 10 215 1z m-307
-75 l-17 -62 -75 -18 c-93 -21 -97 -22 -104 -3 -4 12 38 95 48 95 0 0 28 11
61 25 33 13 70 25 82 25 l21 0 -16 -62z m511 26 c29 -16 77 -83 77 -109 0 -9
5 -13 10 -10 6 3 10 1 10 -4 0 -6 -1 -11 -2 -11 -2 1 -36 9 -77 19 l-73 17
-24 59 c-13 32 -24 62 -24 66 0 9 65 -8 103 -27z m-118 -117 c8 -13 18 -37 21
-55 6 -28 3 -32 -22 -39 -32 -9 -359 -11 -368 -3 -4 5 8 77 19 108 3 9 46 12
169 12 162 0 166 -1 181 -23z m-556 -41 c9 -8 38 -23 66 -34 82 -32 70 -58
-36 -77 -41 -7 -85 -16 -99 -19 -15 -4 -33 -1 -45 7 -19 14 -19 15 0 57 31 68
80 97 114 66z m776 8 c9 -4 29 -33 45 -65 29 -56 29 -59 11 -69 -14 -7 -39 -6
-86 4 -74 16 -81 20 -90 57 -6 24 -1 30 37 52 47 27 58 30 83 21z m-225 -112
c53 -7 55 -8 68 -46 7 -21 11 -40 9 -42 -2 -2 -50 -9 -108 -15 -96 -11 -344
-7 -356 5 -3 3 -2 25 1 50 6 35 12 46 29 49 35 7 296 6 357 -1z m-501 -92 l43
-11 -6 -47 c-16 -117 -10 -113 -129 -86 -88 20 -156 49 -163 68 -3 9 5 34 18
57 32 59 74 73 143 48 28 -10 70 -23 94 -29z m842 -4 c28 -45 34 -76 18 -87
-20 -13 -109 -45 -144 -53 l-31 -7 -19 76 c-10 41 -16 76 -14 78 2 2 29 13 59
24 66 24 102 16 131 -31z m-237 -76 c10 -39 16 -74 12 -77 -13 -14 -125 -21
-316 -22 -107 0 -200 3 -207 7 -9 6 -9 25 -1 79 l10 71 152 -4 c83 -3 180 -1
216 4 122 18 114 21 134 -58z"/>
<path d="M4463 7157 c-9 -19 -8 -26 6 -34 28 -18 7 -23 -50 -11 -72 15 -109 6
-109 -27 0 -14 4 -25 10 -25 9 0 101 -40 144 -62 13 -7 16 -7 11 2 -4 6 -4 26
-1 45 8 41 53 63 79 38 11 -11 23 -13 44 -8 15 4 37 8 48 9 13 1 21 9 23 24 2
12 10 22 18 22 8 0 14 5 14 10 0 6 -20 10 -45 10 -33 0 -45 -4 -45 -15 0 -8
-5 -15 -11 -15 -5 0 -7 5 -4 10 3 6 1 10 -5 10 -7 0 -9 7 -6 15 8 22 -20 30
-39 12 -10 -11 -11 -17 -3 -19 21 -7 -2 -28 -30 -28 -26 1 -26 1 -8 15 18 14
19 15 2 15 -12 0 -16 5 -12 15 9 25 -20 17 -31 -8z"/>
<path d="M10118 6226 c-74 -26 -123 -75 -147 -145 -45 -135 69 -291 214 -291
115 0 225 110 225 225 0 116 -112 226 -226 225 -16 -1 -46 -7 -66 -14z"/>
<path d="M10583 5742 c-61 -9 -86 -113 -37 -151 43 -34 153 -21 124 14 -9 11
-17 11 -36 3 -18 -8 -31 -8 -49 0 -44 20 -28 32 41 32 l67 0 -7 32 c-11 55
-46 79 -103 70z"/>
<path d="M11186 5734 c-14 -7 -26 -9 -26 -3 0 5 -9 9 -20 9 -18 0 -20 -7 -20
-85 0 -78 2 -85 20 -85 17 0 20 7 20 44 0 58 15 96 38 96 31 0 42 -22 42 -82
0 -51 2 -58 20 -58 18 0 20 7 20 63 0 92 -36 132 -94 101z"/>
<path d="M11616 5735 c-14 -8 -26 -10 -26 -4 0 5 -9 9 -20 9 -18 0 -20 -7 -20
-85 0 -78 2 -85 20 -85 18 0 20 7 20 58 0 60 11 82 41 82 22 0 29 -20 29 -86
0 -47 2 -54 20 -54 17 0 20 7 20 53 0 60 17 91 46 85 16 -3 19 -13 22 -71 3
-59 5 -67 22 -67 18 0 20 7 20 66 0 36 -5 74 -10 85 -12 22 -59 26 -90 7 -15
-9 -23 -10 -28 -2 -13 19 -39 23 -66 9z"/>
<path d="M10922 5717 c-31 -33 -30 -90 3 -122 47 -48 135 -25 151 40 8 31 -12
82 -37 95 -34 19 -94 12 -117 -13z"/>
<path d="M11359 5730 c-23 -14 -42 -65 -35 -95 16 -65 104 -88 151 -40 34 33
34 93 2 123 -25 23 -88 30 -118 12z"/>
<path d="M1041 5201 c-12 -16 -21 -39 -21 -52 0 -22 0 -22 -16 -3 -14 18 -15
16 -11 -31 4 -52 43 -155 59 -155 5 0 4 10 -2 23 -10 20 -9 20 9 -3 11 -14 19
-31 16 -38 -3 -7 0 -10 6 -6 6 3 8 15 6 26 -5 19 -5 19 15 1 11 -10 22 -17 24
-15 10 6 35 1 30 -6 -2 -4 9 -14 26 -21 25 -11 32 -11 38 0 10 15 213 20 285
7 27 -5 33 -4 20 2 -26 11 3 12 30 0 l20 -9 -20 -1 c-20 0 -20 -1 1 -18 31
-24 46 -59 38 -85 -4 -14 -3 -19 4 -12 13 14 24 65 13 65 -5 0 -11 9 -14 21
-5 19 -4 19 18 5 22 -14 25 -14 39 0 16 16 41 10 30 -7 -3 -5 -10 -7 -15 -4
-5 4 -9 1 -9 -5 0 -6 -4 -9 -9 -6 -9 6 -25 -54 -16 -62 3 -3 5 2 5 12 0 10 5
14 11 10 6 -3 9 -18 6 -32 -5 -25 -4 -25 9 -7 8 10 14 26 14 34 0 13 2 13 16
-1 15 -15 15 -19 0 -49 -9 -18 -14 -34 -11 -37 7 -7 36 65 33 80 -2 7 3 12 10
10 16 -3 15 13 -3 48 -9 17 -22 30 -30 30 -8 0 -15 6 -16 13 0 22 -215 191
-231 181 -5 -3 -24 10 -43 30 -26 29 -40 36 -69 36 -25 0 -35 4 -30 11 4 8 -1
9 -16 4 -13 -4 -20 -3 -17 2 3 5 -26 9 -65 10 -46 1 -66 -2 -57 -8 10 -7 5 -9
-16 -7 -27 3 -32 -2 -52 -42 -12 -25 -22 -42 -23 -39 -1 15 24 76 39 93 15 18
15 18 -7 7 -13 -7 -26 -19 -29 -27 -3 -8 -10 -14 -16 -14 -7 0 -7 4 1 12 7 7
12 20 12 29 0 10 6 20 13 22 8 4 9 6 0 6 -6 1 -21 -12 -32 -28z"/>
<path d="M10110 4860 l0 -120 100 0 100 0 0 120 0 120 -100 0 -100 0 0 -120z"/>
<path d="M11152 4904 c-23 -14 -42 -29 -42 -34 0 -13 82 -60 93 -53 5 3 -4 14
-20 24 -28 19 -27 19 167 19 194 0 195 0 167 -19 -16 -10 -25 -21 -20 -24 11
-7 93 40 93 53 0 13 -82 60 -93 53 -5 -3 4 -14 20 -24 28 -19 27 -19 -167 -19
-194 0 -195 0 -167 19 44 29 16 33 -31 5z"/>
<path d="M10920 4855 l0 -65 80 0 80 0 0 65 0 65 -80 0 -80 0 0 -65z"/>
<path d="M12456 4664 c-9 -8 -16 -17 -16 -19 0 -2 7 -11 16 -19 12 -12 37 -16
109 -16 72 0 97 4 109 16 9 8 16 17 16 19 0 2 -7 11 -16 19 -12 12 -37 16
-109 16 -72 0 -97 -4 -109 -16z"/>
<path d="M10950 4380 l0 -60 80 0 80 0 0 60 0 60 -80 0 -80 0 0 -60z"/>
<path d="M11300 4380 l0 -60 80 0 80 0 0 60 0 60 -80 0 -80 0 0 -60z"/>
<path d="M12521 4292 c-45 -22 -70 -58 -77 -107 -3 -22 -13 -54 -22 -72 -13
-26 -14 -34 -2 -48 7 -8 18 -39 25 -68 11 -49 13 -52 44 -55 26 -3 36 -10 44
-33 l11 -29 113 0 112 0 -24 36 c-31 46 -31 56 1 140 45 120 23 203 -63 240
-45 19 -121 17 -162 -4z m155 -27 c23 -10 39 -26 49 -49 20 -48 19 -66 -11
-153 -15 -44 -24 -89 -22 -109 l4 -34 -68 0 c-53 0 -68 3 -68 15 0 17 -30 35
-60 35 -17 0 -21 5 -19 28 2 15 -4 42 -14 61 -13 26 -14 37 -5 55 7 11 13 38
14 59 5 84 106 131 200 92z"/>
<path d="M12534 4236 c-24 -26 -37 -56 -24 -56 6 0 10 -5 10 -11 0 -33 73 -57
90 -29 9 15 33 3 27 -14 -5 -14 13 -31 33 -31 49 0 47 67 -2 71 -10 1 -18 -2
-18 -7 0 -5 -5 -9 -10 -9 -6 0 -9 15 -7 34 3 26 -1 37 -20 52 -34 25 -55 26
-79 0z"/>
<path d="M10890 4000 l0 -230 485 0 485 0 0 230 0 230 -485 0 -485 0 0 -230z
m610 -90 l0 -80 -105 0 c-101 0 -105 1 -105 22 0 12 -9 31 -20 43 l-20 22 20
18 c11 10 20 26 20 37 0 16 10 18 105 18 l105 0 0 -80z"/>
<path d="M10110 4065 l0 -115 105 0 105 0 0 115 0 115 -105 0 -105 0 0 -115z"/>
<path d="M10278 3275 c-59 -22 -102 -60 -134 -117 -24 -45 -29 -64 -29 -123 1
-78 16 -118 69 -173 149 -159 416 -66 434 153 8 100 -38 191 -123 241 -57 33
-159 42 -217 19z"/>
<path d="M11970 3075 c0 -127 1 -135 20 -135 16 0 19 8 22 61 3 65 19 88 52
76 12 -5 16 -20 16 -72 0 -58 2 -65 20 -65 18 0 20 7 20 66 0 83 -11 104 -53
104 -18 0 -38 -5 -45 -12 -9 -9 -12 2 -12 50 0 55 -2 62 -20 62 -19 0 -20 -7
-20 -135z"/>
<path d="M12802 3190 c-35 -15 -48 -54 -28 -84 15 -24 15 -26 -3 -35 -42 -23
-44 -98 -2 -120 29 -16 82 -13 103 6 17 15 19 15 36 0 10 -10 29 -17 42 -17
l24 0 -28 29 -28 30 22 35 c21 36 21 36 1 36 -11 0 -27 -10 -35 -22 l-16 -22
-21 20 -21 21 26 26 c30 30 33 58 9 79 -25 22 -54 28 -81 18z"/>
<path d="M10900 3095 c-14 -16 -13 -17 45 -19 29 -1 40 -6 43 -18 3 -15 -4
-18 -35 -18 -47 -1 -73 -19 -73 -53 0 -41 68 -65 98 -35 9 9 12 9 12 0 0 -7 9
-12 20 -12 18 0 20 7 20 63 0 83 -16 107 -74 107 -27 0 -48 -6 -56 -15z"/>
<path d="M11191 3084 c-58 -73 20 -176 100 -134 16 9 19 7 19 -9 0 -42 -48
-63 -92 -40 -16 9 -24 8 -36 -5 -14 -14 -13 -16 12 -26 15 -5 44 -10 64 -10
71 1 92 37 92 159 0 84 -1 91 -20 91 -11 0 -20 -5 -20 -12 0 -9 -3 -9 -12 0
-7 7 -29 12 -49 12 -29 0 -43 -6 -58 -26z"/>
<path d="M11426 3089 c-36 -28 -37 -89 -1 -124 52 -53 146 -17 148 58 2 76
-84 115 -147 66z"/>
<path d="M12180 3025 c0 -78 2 -85 20 -85 18 0 20 7 20 54 0 69 7 86 35 86 28
0 35 -17 35 -86 0 -47 3 -54 20 -54 16 0 19 8 22 61 3 65 19 88 52 76 12 -5
16 -20 16 -72 0 -58 2 -65 20 -65 18 0 20 7 20 68 0 54 -4 72 -18 85 -23 21
-66 22 -82 2 -12 -14 -15 -14 -30 0 -20 18 -61 20 -79 3 -11 -10 -14 -10 -18
0 -3 6 -11 12 -19 12 -11 0 -14 -18 -14 -85z"/>
<path d="M11098 2606 c-24 -18 -39 -63 -32 -92 9 -34 51 -64 91 -64 76 0 115
103 57 149 -30 24 -90 27 -116 7z"/>
<path d="M11290 2535 c0 -78 2 -85 20 -85 16 0 19 8 22 61 3 65 19 88 52 76
12 -5 16 -20 16 -72 0 -58 2 -65 20 -65 16 0 19 8 22 61 3 65 19 88 52 76 12
-5 16 -20 16 -72 0 -58 2 -65 20 -65 18 0 20 7 20 69 0 50 -4 74 -16 85 -20
20 -68 21 -84 1 -12 -14 -15 -14 -30 0 -20 18 -61 20 -78 3 -9 -9 -12 -9 -12
0 0 7 -9 12 -20 12 -18 0 -20 -7 -20 -85z"/>
<path d="M11610 2495 c0 -118 1 -125 20 -125 17 0 20 7 20 52 0 40 3 49 12 40
16 -16 68 -15 90 2 43 32 42 123 -2 146 -26 14 -73 12 -89 -2 -11 -10 -14 -10
-18 0 -3 6 -11 12 -19 12 -11 0 -14 -24 -14 -125z"/>
<path d="M12177 2609 c-28 -16 -11 -28 34 -22 29 4 44 2 49 -8 13 -20 2 -29
-33 -29 -63 0 -97 -48 -61 -84 19 -19 65 -21 83 -3 11 10 14 10 18 0 3 -7 11
-13 19 -13 23 0 19 132 -4 153 -21 19 -77 22 -105 6z"/>
<path d="M12599 2607 c-67 -52 -32 -157 53 -157 52 0 88 35 88 85 0 50 -36 85
-87 85 -21 0 -45 -6 -54 -13z"/>
<path d="M12790 2535 c0 -78 2 -85 20 -85 16 0 19 8 22 61 3 65 19 88 52 76
12 -5 16 -20 16 -72 0 -58 2 -65 20 -65 18 0 20 7 20 69 0 50 -4 74 -16 85
-18 19 -65 21 -82 4 -9 -9 -12 -9 -12 0 0 7 -9 12 -20 12 -18 0 -20 -7 -20
-85z"/>
<path d="M9861 1810 c-73 -17 -92 -66 -88 -230 5 -183 5 -183 327 -191 135 -3
235 -9 224 -13 -18 -6 -21 -15 -20 -54 1 -36 5 -48 19 -50 9 -2 17 -9 17 -17
0 -18 25 -26 39 -12 8 8 14 8 22 0 14 -14 39 -6 39 13 0 7 8 18 18 23 14 7 18
20 16 48 -3 53 -2 51 -21 56 -10 3 86 6 212 7 260 2 280 4 315 29 38 28 49 73
47 203 -2 132 -15 163 -78 185 -39 13 -1030 16 -1088 3z"/>
<path d="M2552 1702 c-44 -61 -78 -214 -121 -550 -12 -87 -28 -170 -39 -195
-25 -56 -77 -105 -127 -118 -22 -6 -46 -13 -52 -15 -7 -2 -13 -15 -13 -30 0
-25 2 -26 38 -19 86 15 159 72 197 152 24 51 42 143 65 333 27 230 72 420 100
420 23 0 92 -224 121 -395 11 -63 10 -86 -14 -229 -15 -88 -34 -170 -42 -182
-33 -51 -138 -104 -207 -104 -23 0 -28 -4 -28 -25 0 -21 5 -25 28 -25 36 0
128 27 161 48 40 25 81 64 97 94 7 14 20 66 29 114 15 84 25 117 25 80 0 -10
16 -34 35 -53 35 -35 37 -36 100 -31 37 3 65 2 67 -4 5 -13 -28 -235 -42 -279
-5 -20 -28 -57 -50 -82 -31 -35 -52 -49 -98 -62 -53 -16 -58 -20 -54 -42 4
-21 8 -23 36 -18 55 11 139 59 168 95 38 48 64 127 79 235 7 50 13 91 13 92 1
1 20 -4 41 -11 38 -13 41 -17 56 -80 20 -78 39 -110 82 -137 27 -17 45 -20
122 -16 50 2 110 11 135 20 44 16 45 16 63 -4 13 -17 22 -20 37 -13 20 9 20
10 -5 47 -14 20 -32 37 -40 37 -9 0 -48 -9 -87 -20 -89 -25 -160 -26 -199 -3
-30 18 -43 43 -58 110 l-9 42 37 3 c28 2 37 8 39 25 3 19 -2 22 -43 25 -46 3
-48 4 -65 51 -14 36 -15 47 -5 47 11 0 30 29 23 35 -2 2 -18 12 -37 23 -36 22
-28 25 -91 -31 -20 -17 -21 -17 -30 9 -6 15 -12 38 -14 53 -3 32 -70 178 -93
203 -22 24 -62 23 -89 -3 l-22 -21 -12 59 c-18 92 -59 238 -80 287 -37 87 -91
111 -128 58z m311 -435 c22 -33 87 -231 79 -238 -4 -4 -22 -10 -39 -14 -49
-10 -86 31 -102 113 -7 34 -9 73 -6 85 23 81 41 95 68 54z"/>
<path d="M11125 1709 c-36 -21 -55 -53 -55 -94 0 -101 114 -139 177 -60 27 33
31 35 91 35 l62 0 -1 -87 c0 -72 -2 -85 -12 -69 -31 49 -41 56 -59 42 -16 -11
-13 -19 31 -92 32 -54 53 -79 66 -79 13 0 34 25 66 79 44 73 47 81 31 92 -18
14 -28 7 -59 -42 -10 -15 -12 3 -12 94 l-1 112 -86 0 -87 0 -31 35 c-34 39
-86 54 -121 34z"/>
<path d="M6657 1576 c-173 -62 -205 -291 -54 -393 94 -63 196 -53 278 26 94
91 94 221 0 312 -66 64 -144 83 -224 55z"/>
<path d="M11034 1273 c-12 -2 -34 -18 -50 -34 l-29 -30 0 -299 0 -300 33 -32
32 -33 163 -3 c159 -4 163 -4 190 -30 26 -25 27 -29 27 -129 l0 -103 -495 0
-495 0 0 408 0 407 22 -37 c23 -39 36 -46 55 -27 8 8 -3 34 -39 95 -28 46 -56
84 -63 84 -7 0 -35 -38 -63 -84 -36 -61 -47 -87 -39 -95 19 -19 32 -12 55 27
l22 37 0 -432 0 -433 545 0 545 0 0 128 c0 127 0 129 28 154 26 26 30 26 189
30 l163 3 32 33 33 32 0 300 0 300 -33 32 -32 33 -388 1 c-213 1 -397 0 -408
-3z"/>
<path d="M4132 874 c-98 -49 -201 -174 -302 -367 l-45 -85 25 -28 c58 -63 201
-94 435 -94 221 0 360 28 433 88 l24 19 -42 84 c-170 340 -351 471 -528 383z
m208 -173 c5 -11 14 -31 20 -45 l10 -26 -111 0 -111 0 7 37 c4 21 9 41 11 45
3 5 41 8 84 8 68 0 81 -3 90 -19z m46 -117 c8 -20 13 -39 9 -42 -11 -11 -246
-15 -257 -4 -6 6 -8 25 -4 46 l7 36 115 0 115 0 15 -36z m-9 -84 c27 0 35 -5
44 -26 5 -15 7 -30 3 -33 -10 -10 -174 -19 -247 -13 l-68 5 3 31 c3 28 7 32
43 38 22 3 73 5 114 2 41 -2 89 -4 108 -4z m-404 -51 l69 -21 -7 -52 c-4 -28
-8 -52 -10 -54 -5 -6 -136 28 -165 43 l-29 15 21 36 c12 20 27 38 35 41 12 5
12 7 1 15 -10 8 -10 8 2 4 8 -2 46 -15 83 -27z m476 -72 c8 -26 11 -50 7 -54
-4 -5 -88 -10 -187 -11 -201 -4 -186 -10 -172 72 l6 38 81 -6 c45 -3 115 -2
156 3 41 4 79 7 85 6 5 -1 16 -22 24 -48z"/>
<path d="M7100 818 c0 -48 -3 -59 -12 -50 -17 17 -69 15 -95 -3 -44 -31 -35
-131 12 -149 27 -10 70 -7 83 6 9 9 12 9 12 0 0 -7 9 -12 20 -12 19 0 20 7 20
135 0 128 -1 135 -20 135 -18 0 -20 -7 -20 -62z"/>
<path d="M6670 857 c-28 -14 -38 -54 -20 -87 10 -18 7 -24 -14 -41 -53 -42
-19 -119 52 -119 21 0 47 6 58 14 16 13 21 12 36 -1 9 -8 27 -13 39 -11 l22 3
-25 30 -26 30 24 33 c25 32 25 32 4 32 -12 0 -29 -9 -39 -21 l-16 -21 -19 21
c-19 21 -19 22 2 42 24 22 29 70 9 87 -22 18 -61 23 -87 9z"/>
<path d="M5281 756 c-52 -55 -15 -146 59 -146 44 0 83 25 61 39 -9 6 -20 5
-31 -1 -21 -14 -66 -3 -74 17 -4 12 6 15 59 15 65 0 65 0 65 28 0 66 -93 97
-139 48z"/>
<path d="M5480 770 c-22 -14 -3 -25 43 -25 32 0 42 -4 45 -17 3 -15 -4 -18
-37 -18 -28 0 -48 -7 -61 -20 -24 -24 -24 -29 -4 -58 17 -25 71 -31 92 -10 9
9 12 9 12 0 0 -7 9 -12 20 -12 18 0 20 7 20 63 0 83 -17 107 -73 107 -23 0
-49 -4 -57 -10z"/>
<path d="M5790 695 c0 -78 2 -85 20 -85 18 0 20 7 20 58 0 60 11 82 42 82 25
0 38 -31 38 -89 0 -45 2 -51 21 -51 21 0 21 4 17 70 -3 38 -11 77 -18 85 -15
18 -71 20 -88 3 -9 -9 -12 -9 -12 0 0 7 -9 12 -20 12 -18 0 -20 -7 -20 -85z"/>
<path d="M6328 770 c-27 -16 -42 -74 -26 -107 20 -41 60 -60 98 -46 28 11 30
10 30 -13 0 -35 -40 -52 -83 -36 -40 15 -63 -2 -33 -24 33 -24 103 -18 131 11
23 22 25 31 25 125 0 80 -3 100 -14 100 -8 0 -16 -6 -19 -12 -4 -10 -7 -10
-18 0 -15 14 -67 15 -91 2z"/>
<path d="M7215 755 c-56 -55 -16 -145 63 -145 39 0 69 20 58 39 -4 6 -17 5
-36 -2 -32 -12 -60 -3 -68 21 -2 8 15 12 56 12 32 0 61 3 64 6 10 9 -11 68
-29 82 -28 21 -81 15 -108 -13z"/>
<path d="M7946 759 c-36 -28 -37 -89 -1 -124 53 -53 149 -15 149 58 0 76 -86
115 -148 66z"/>
<path d="M8140 695 c0 -78 2 -85 20 -85 17 0 20 7 20 51 0 58 13 89 38 89 31
0 42 -22 42 -82 0 -51 2 -58 20 -58 18 0 20 7 20 58 0 76 -16 106 -58 110 -18
2 -40 -2 -48 -9 -10 -8 -14 -8 -14 0 0 6 -9 11 -20 11 -18 0 -20 -7 -20 -85z"/>
<path d="M6650 265 c0 -128 1 -135 20 -135 17 0 20 7 20 48 l1 47 20 -27 c47
-63 55 -70 79 -66 24 3 24 3 -14 46 l-39 43 38 39 c37 38 38 40 15 40 -14 0
-40 -15 -62 -37 l-38 -37 0 87 c0 80 -2 87 -20 87 -19 0 -20 -7 -20 -135z"/>
<path d="M6140 215 c0 -78 2 -85 20 -85 18 0 20 7 20 58 0 60 11 82 41 82 22
0 29 -20 29 -86 0 -47 3 -54 20 -54 16 0 19 8 22 61 3 65 19 88 52 76 12 -5
16 -20 16 -72 0 -58 2 -65 20 -65 18 0 20 7 20 69 0 50 -4 74 -16 85 -20 20
-62 21 -84 1 -15 -14 -18 -14 -30 0 -15 18 -61 20 -79 3 -11 -10 -14 -10 -18
0 -3 6 -11 12 -19 12 -11 0 -14 -18 -14 -85z"/>
<path d="M6473 293 c-7 -2 -13 -11 -13 -18 0 -9 14 -13 48 -12 36 2 47 -2 47
-13 0 -9 -11 -16 -25 -18 -52 -6 -70 -13 -80 -33 -18 -32 11 -69 53 -69 18 0
38 5 45 12 9 9 12 9 12 0 0 -7 10 -12 21 -12 20 0 21 4 17 71 -3 55 -8 74 -23
85 -18 14 -77 18 -102 7z"/>
<path d="M7161 274 c-29 -37 -27 -89 4 -119 25 -26 78 -34 90 -15 10 16 25 11
25 -8 0 -41 -69 -69 -98 -40 -9 10 -16 8 -29 -5 -15 -15 -15 -17 11 -27 37
-14 97 -12 118 4 28 21 38 62 38 152 0 77 -2 84 -20 84 -11 0 -20 -5 -20 -12
0 -9 -3 -9 -12 0 -7 7 -29 12 -49 12 -29 0 -43 -6 -58 -26z"/>
</g>
</svg>
